<svg width="279" height="276" viewBox="0 0 279 276" fill="none" xmlns="http://www.w3.org/2000/svg">
<path d="M154.129 226.275C154.399 198.74 147.418 176.348 138.538 176.261C129.657 176.174 122.24 198.426 121.971 225.961C121.702 253.497 128.683 275.889 137.563 275.976C146.443 276.063 153.861 253.811 154.129 226.275Z" fill="white"/>
<path d="M102.627 220.021C117.741 197.003 123.976 174.391 116.553 169.517C109.129 164.643 90.8581 179.351 75.7441 202.369C60.6295 225.388 54.3949 247.999 61.8181 252.874C69.2419 257.748 87.5119 243.04 102.627 220.021Z" fill="white"/>
<path d="M62.6198 186.996C87.7802 175.805 105.25 160.155 101.641 152.04C98.0318 143.926 74.7098 146.421 49.5494 157.612C24.3892 168.804 6.91887 184.454 10.5282 192.569C14.1374 200.683 37.4596 198.188 62.6198 186.996Z" fill="white"/>
<path d="M98.6209 129.285C99.9721 120.508 79.0039 109.996 51.7879 105.807C24.5712 101.618 1.41274 105.338 0.0617826 114.115C-1.28918 122.893 19.6789 133.404 46.8954 137.593C74.1115 141.782 97.2703 138.062 98.6209 129.285Z" fill="white"/>
<path d="M108.393 108.375C114.274 101.721 102.315 81.5439 81.6813 63.3081C61.0479 45.0724 39.5536 35.6838 33.6725 42.3382C27.7914 48.9927 39.7506 69.1701 60.3843 87.4059C81.0177 105.642 102.512 115.03 108.393 108.375Z" fill="white"/>
<path d="M127.853 96.155C136.398 93.737 137.247 70.2968 129.75 43.8004C122.252 17.3039 109.246 -2.21558 100.701 0.202476C92.156 2.62054 91.307 26.0604 98.8046 52.5572C106.302 79.0532 119.308 98.573 127.853 96.155Z" fill="white"/>
<path d="M180.695 53.3816C188.714 27.038 188.328 3.58592 179.832 0.999862C171.336 -1.58626 157.948 17.6729 149.929 44.0164C141.91 70.3598 142.297 93.812 150.793 96.398C159.289 98.984 172.677 79.7252 180.695 53.3816Z" fill="white"/>
<path d="M218.453 88.9772C239.439 71.1482 251.791 51.2084 246.04 44.4406C240.291 37.6726 218.617 46.6394 197.631 64.4678C176.645 82.2968 164.294 102.237 170.044 109.005C175.794 115.773 197.467 106.806 218.453 88.9772Z" fill="white"/>
<path d="M230.938 139.35C258.232 135.698 279.403 125.602 278.225 116.8C277.048 107.998 253.967 103.822 226.673 107.473C199.38 111.125 178.208 121.221 179.386 130.023C180.564 138.825 203.644 143.001 230.938 139.35Z" fill="white"/>
<path d="M266.147 195.084C269.916 187.043 252.758 171.051 227.823 159.366C202.889 147.68 179.62 144.726 175.851 152.767C172.083 160.809 189.241 176.801 214.176 188.487C239.11 200.172 262.379 203.126 266.147 195.084Z" fill="white"/>
<path d="M213.698 254.418C221.216 249.691 215.428 226.96 200.771 203.649C186.114 180.337 168.136 165.271 160.618 169.998C153.1 174.725 158.888 197.455 173.545 220.767C188.203 244.079 206.18 259.145 213.698 254.418Z" fill="white"/>
</svg>
